<svg id="Layer_1" data-name="Layer 1" xmlns="http://www.w3.org/2000/svg" viewBox="0 0 390.67 109.24"><defs><style>.cls-1,.cls-2{fill:#ff3f00;}.cls-2{fill-rule:evenodd;}</style></defs><title>Mesh Logo</title><path class="cls-1" d="M84.11,49.38a11.55,11.55,0,0,0-3.82-6.7A11.11,11.11,0,0,0,62,50.31V98.14H42.06V50.94a11.11,11.11,0,0,0-3.35-7.71A10.53,10.53,0,0,0,31,40a11,11,0,0,0-7.32,2.65,10.67,10.67,0,0,0-3.74,6.7V98.14H0V50.94a29.13,29.13,0,0,1,2.5-12,31.21,31.21,0,0,1,6.69-9.74A31.93,31.93,0,0,1,19,22.67a30,30,0,0,1,12-2.42,29.27,29.27,0,0,1,11.45,2.26A32.51,32.51,0,0,1,52,28.66a30.2,30.2,0,0,1,9.5-6.15,30.77,30.77,0,0,1,23.52.16,31.86,31.86,0,0,1,9.81,6.54,31.28,31.28,0,0,1,6.7,9.74,29.16,29.16,0,0,1,2.49,12v47.2H84.11Z"/><path class="cls-1" d="M204.79,71.91a11.06,11.06,0,0,1,1-20.65,2.77,2.77,0,0,0,1.83-3.31,49.62,49.62,0,0,0-3.93-10.55,2.79,2.79,0,0,0-3.6-1.29,11.6,11.6,0,0,1-12-2q-.52-.58-1.07-1.15a11.12,11.12,0,0,1-1.18-12.08,2.78,2.78,0,0,0-1-3.68,49.68,49.68,0,0,0-10.25-4.66,2.79,2.79,0,0,0-3.43,1.59A11.14,11.14,0,0,1,160.53,21a11.57,11.57,0,0,1-10.13-7.67,2.79,2.79,0,0,0-3.31-1.85,49.82,49.82,0,0,0-10.68,4A2.78,2.78,0,0,0,135.13,19a11.09,11.09,0,0,1-1.8,11.71c-.52.47-1,1-1.55,1.46a11.69,11.69,0,0,1-11.94,1,2.72,2.72,0,0,0-3.65,1.05,49.83,49.83,0,0,0-4.71,10.36c-.44,1.35.67,3,2,3.59A11,11,0,0,1,120,58.75a11.13,11.13,0,0,1-7.65,10.13,2.78,2.78,0,0,0-1.82,3.31,49.43,49.43,0,0,0,3.92,10.55,2.78,2.78,0,0,0,3.6,1.29,11.53,11.53,0,0,1,12.52,2.58,11.09,11.09,0,0,1,1.7,12.69,2.78,2.78,0,0,0,1,3.68,49.6,49.6,0,0,0,5.11,2.68,50.15,50.15,0,0,0,5.14,2,2.78,2.78,0,0,0,3.44-1.59,11.12,11.12,0,0,1,10.63-6.91l-.12-.19c.49,0,1,0,1.47,0l-.64-20A18.48,18.48,0,0,1,147.42,75a18.27,18.27,0,0,1-6-8,19.23,19.23,0,0,1-1.12-9.74l43,33.31c.64-.54,1.27-1.1,1.91-1.69,0,0,0,.07,0,.06a20.82,20.82,0,0,1,2.16-1.64,11.22,11.22,0,0,1,10.42-.71l.55.27a2.78,2.78,0,0,0,3.68-1,49.89,49.89,0,0,0,4.71-10.36A3.26,3.26,0,0,0,204.79,71.91ZM178,61.28,153.12,42a20.9,20.9,0,0,1,9-.7,18.66,18.66,0,0,1,14.28,11.08A21,21,0,0,1,178,61.28Z"/><path class="cls-2" d="M305.83,50.41a2.78,2.78,0,0,0-3.06-2.28,11.07,11.07,0,0,1-11.18-6c-.43-.88-.88-1.74-1.36-2.55l0-.15L238.07,54.93a19.26,19.26,0,0,1,4.57-8.67A18.29,18.29,0,0,1,251.15,41a19,19,0,0,1,12.35.56l7.12-18.69c-.54-.2-1.08-.38-1.63-.56l.13-.11a11.15,11.15,0,0,1-7.48-10.25A2.78,2.78,0,0,0,259,9.21a49.56,49.56,0,0,0-11.25.71A2.79,2.79,0,0,0,245.49,13a11.56,11.56,0,0,1-5.73,11l-.71.35a11.13,11.13,0,0,1-12.29-2.21,2.77,2.77,0,0,0-3.81-.08,49.86,49.86,0,0,0-7.43,8.46,2.79,2.79,0,0,0,.53,3.75,11.13,11.13,0,0,1,3.54,12.19A11.56,11.56,0,0,1,209.3,54a2.78,2.78,0,0,0-2.72,2.63A49.39,49.39,0,0,0,207.29,68a2.78,2.78,0,0,0,3.06,2.28,11.08,11.08,0,0,1,11.24,6.1h0c.42.88.86,1.75,1.31,2.57L275,63.45a19.23,19.23,0,0,1-4.57,8.67A18.19,18.19,0,0,1,262,77.41a17.82,17.82,0,0,1-6,.74A22.6,22.6,0,0,1,250,77.06l-7.13,18.69,1.2.39-.09.07a11.12,11.12,0,0,1,7.48,10.25,2.79,2.79,0,0,0,2.64,2.71,50.11,50.11,0,0,0,11.24-.69,2.78,2.78,0,0,0,2.28-3.07,11.54,11.54,0,0,1,5.91-11.15l.35-.17a11.09,11.09,0,0,1,12.47,2.11,2.79,2.79,0,0,0,3.82.08,51.47,51.47,0,0,0,4-4.13,49.42,49.42,0,0,0,3.38-4.33,2.77,2.77,0,0,0-.53-3.75,11.12,11.12,0,0,1-3.53-12.18,11.54,11.54,0,0,1,10.28-7.48,2.79,2.79,0,0,0,2.71-2.64A49.67,49.67,0,0,0,305.83,50.41Z"/><path class="cls-1" d="M369.26,51.79a19,19,0,0,0-36.53,7.4V98.14H312.79V0h19.94V25.24a40.52,40.52,0,0,1,9-3.66,37.77,37.77,0,0,1,10-1.32,38.18,38.18,0,0,1,15.18,3A38.93,38.93,0,0,1,387.64,44a38.15,38.15,0,0,1,3,15.18V98.14H370.74V59.19A18.87,18.87,0,0,0,369.26,51.79Z"/></svg>